<?xml version="1.0" standalone="no"?>
<!DOCTYPE svg PUBLIC "-//W3C//DTD SVG 20010904//EN"
 "http://www.w3.org/TR/2001/REC-SVG-20010904/DTD/svg10.dtd">
<svg version="1.0" xmlns="http://www.w3.org/2000/svg"
 width="299.000000pt" height="500.000000pt" viewBox="0 0 299.000000 500.000000"
 preserveAspectRatio="xMidYMid meet">

<g transform="translate(0.000000,500.000000) scale(0.100000,-0.100000)"
fill="#000000" stroke="none">
<path d="M0 2514 c0 -2363 1 -2486 18 -2480 16 6 16 5 0 -8 -10 -7 -18 -16
-18 -20 0 -3 673 -6 1495 -6 l1495 0 0 2500 0 2500 -1495 0 -1495 0 0 -2486z
m1170 2291 c0 -11 19 -15 88 -18 48 -1 -3 -3 -113 -3 -155 0 -176 1 -95 6 58
3 101 7 97 8 -11 3 1 22 14 22 5 0 9 -7 9 -15z m-513 -21 c-3 -3 -12 -4 -19
-1 -8 3 -5 6 6 6 11 1 17 -2 13 -5z m211 -1 c-27 -2 -69 -2 -95 0 -27 2 -5 3
47 3 52 0 74 -1 48 -3z m744 -2 c-12 -7 -62 -4 -62 5 0 2 17 4 38 4 23 0 32
-3 24 -9z m45 3 c-3 -3 -12 -4 -19 -1 -8 3 -5 6 6 6 11 1 17 -2 13 -5z m163
-10 c0 -2 -7 -4 -15 -4 -8 0 -15 4 -15 10 0 5 7 7 15 4 8 -4 15 -8 15 -10z
m463 -1 c-35 -2 -91 -2 -125 0 -35 2 -7 3 62 3 69 0 97 -1 63 -3z m327 3 c0
-9 -50 -12 -62 -5 -8 6 1 9 25 9 20 0 37 -2 37 -4z m80 -42 c0 -8 -7 -14 -15
-14 -8 0 -15 9 -15 20 0 13 5 18 15 14 8 -4 15 -12 15 -20z m-1993 -110 c-3
-3 -12 -4 -19 -1 -8 3 -5 6 6 6 11 1 17 -2 13 -5z m806 -171 c-7 -2 -19 -2
-25 0 -7 3 -2 5 12 5 14 0 19 -2 13 -5z m-186 -29 c-3 -3 -12 -4 -19 -1 -8 3
-5 6 6 6 11 1 17 -2 13 -5z m1150 -16 c-3 -8 -6 -5 -6 6 -1 11 2 17 5 13 3 -3
4 -12 1 -19z m-732 -48 c-3 -5 -14 -10 -23 -9 -14 0 -13 2 3 9 27 11 27 11 20
0z m-568 -6 c-3 -3 -12 -4 -19 -1 -8 3 -5 6 6 6 11 1 17 -2 13 -5z m688 -4
c-3 -5 -14 -10 -23 -9 -14 0 -13 2 3 9 27 11 27 11 20 0z m60 0 c-3 -5 -12
-10 -18 -10 -7 0 -6 4 3 10 19 12 23 12 15 0z m328 3 c-7 -2 -19 -2 -25 0 -7
3 -2 5 12 5 14 0 19 -2 13 -5z m-73 -13 c0 -5 -2 -10 -4 -10 -3 0 -8 5 -11 10
-3 6 -1 10 4 10 6 0 11 -4 11 -10z m320 6 c0 -11 -19 -15 -25 -6 -3 5 1 10 9
10 9 0 16 -2 16 -4z m-1050 -228 c25 -2 -4 -4 -65 -4 -75 -1 -93 1 -58 5 28 4
55 10 59 14 4 4 10 3 13 -2 4 -5 27 -11 51 -13z m-932 5 c-10 -2 -28 -2 -40 0
-13 2 -5 4 17 4 22 1 32 -1 23 -4z m420 0 c-21 -2 -57 -2 -80 0 -24 2 -7 4 37
4 44 0 63 -2 43 -4z m1250 -10 c-15 -2 -42 -2 -60 0 -18 2 -6 4 27 4 33 0 48
-2 33 -4z m410 0 c-21 -2 -57 -2 -80 0 -24 2 -7 4 37 4 44 0 63 -2 43 -4z
m-1168 -207 l0 -155 35 6 c32 5 35 4 35 -20 0 -24 -2 -25 -65 -25 l-65 -1 0
175 0 174 30 0 30 0 0 -154z m253 9 c20 -77 40 -155 44 -173 6 -32 5 -33 -23
-30 -26 3 -30 8 -38 50 -7 37 -14 48 -33 53 -44 11 -61 -2 -69 -51 -6 -40 -26
-66 -40 -51 -3 2 17 82 43 176 36 130 52 171 63 169 10 -2 27 -49 53 -143z
m507 -218 c0 -8 -11 -24 -25 -37 l-24 -23 41 -20 c52 -26 78 -79 78 -162 0
-115 -61 -191 -144 -181 -90 11 -139 128 -105 251 12 44 67 105 96 105 11 0
25 15 36 40 18 38 47 55 47 27z m-1055 -67 c28 0 74 -64 86 -117 39 -174 -109
-313 -210 -198 -76 87 -43 286 51 314 18 5 39 7 46 5 8 -2 20 -4 27 -4z m-405
-25 c0 -24 -2 -25 -35 -19 l-35 6 0 -51 0 -51 35 0 c31 0 35 -3 35 -25 0 -24
-2 -25 -35 -19 l-35 6 0 -61 0 -61 35 0 c30 0 35 -3 35 -23 0 -22 -3 -23 -62
-21 l-63 3 -3 170 -2 171 65 0 c63 0 65 -1 65 -25z m111 -85 c14 -58 28 -112
30 -120 3 -8 19 39 35 105 24 95 34 121 48 123 14 3 18 -1 14 -14 -3 -11 -25
-86 -47 -169 -43 -152 -54 -177 -70 -160 -9 11 -91 307 -91 332 0 10 9 13 28
11 26 -3 28 -8 53 -108z m479 -45 l0 -156 35 7 c33 6 35 5 35 -20 0 -25 -2
-26 -65 -26 l-65 0 0 168 c0 93 3 172 7 175 3 4 17 7 30 7 l23 0 0 -155z m160
25 c0 -76 5 -139 12 -154 22 -50 77 -42 97 15 6 18 11 85 11 150 0 107 2 117
18 113 15 -5 17 -17 12 -142 -6 -151 -15 -179 -70 -202 -40 -17 -96 2 -115 40
-15 30 -33 265 -22 294 4 9 18 16 32 16 l25 0 0 -130z m364 120 c15 -5 26 -17
26 -28 0 -29 -11 -33 -37 -12 -29 23 -58 15 -87 -24 -30 -40 -30 -173 0 -213
25 -34 68 -42 95 -17 23 21 30 16 22 -14 -3 -14 -18 -26 -42 -33 -104 -31
-182 83 -152 221 23 107 90 153 175 120z m119 -167 l-2 -168 -25 0 c-15 0 -26
3 -26 8 0 4 0 79 0 167 l0 160 28 0 27 0 -2 -167z m437 57 l65 -105 3 108 c2
99 4 107 23 107 16 0 19 -5 15 -27 -2 -16 -5 -92 -5 -170 -1 -185 -10 -188
-99 -33 -35 60 -68 113 -74 116 -8 5 -9 -27 -5 -110 5 -112 5 -116 -15 -116
-20 0 -21 4 -15 98 4 53 7 130 7 170 0 64 2 73 17 70 10 -2 47 -50 83 -108z
m-1126 -333 c36 -24 56 -78 56 -149 0 -69 -19 -117 -62 -153 -25 -21 -40 -25
-94 -25 l-64 0 0 168 c0 93 3 171 6 174 12 13 133 1 158 -15z m226 -7 c0 -16
-7 -20 -35 -20 l-35 0 0 -50 0 -50 35 0 c28 0 35 -4 35 -20 0 -16 -7 -20 -35
-20 l-35 0 0 -61 0 -61 35 4 c31 4 35 1 35 -19 0 -22 -4 -23 -65 -23 l-65 0 0
170 0 170 65 0 c58 0 65 -2 65 -20z m190 -130 l0 -150 38 0 c31 0 38 -4 38
-20 0 -18 -7 -20 -68 -20 l-68 0 2 170 1 170 29 0 28 0 0 -150z m257 -2 c22
-84 44 -161 48 -171 7 -16 3 -18 -26 -15 -30 3 -34 7 -44 48 -11 44 -12 45
-50 45 -38 0 -39 -1 -50 -45 -7 -30 -17 -46 -29 -48 -13 -3 -17 0 -13 10 3 8
25 85 49 171 32 118 47 157 59 157 12 0 25 -37 56 -152z m423 -218 c0 -5 -12
-21 -27 -35 -15 -14 -22 -25 -15 -25 9 0 12 -41 12 -170 l0 -170 -27 0 -28 0
3 167 c2 93 7 170 13 171 5 2 9 8 9 14 0 18 41 68 51 63 5 -4 9 -10 9 -15z
m-1336 -60 c21 -7 26 -16 26 -41 l0 -32 -23 21 c-40 38 -86 23 -108 -35 -14
-37 -11 -139 5 -178 18 -43 57 -56 99 -32 28 16 28 16 25 -5 -7 -54 -103 -60
-151 -10 -35 37 -47 73 -47 140 1 127 82 207 174 172z m497 -26 c49 -47 63
-140 33 -226 -20 -61 -52 -89 -107 -95 -39 -5 -48 -1 -80 27 -44 39 -61 92
-54 172 6 65 35 121 75 143 39 22 98 13 133 -21z m405 17 c89 -54 94 -235 9
-310 -78 -68 -170 -24 -195 92 -32 156 77 284 186 218z m279 5 c22 -10 35 -22
35 -34 0 -30 -12 -34 -36 -11 -32 30 -73 22 -102 -21 -21 -31 -23 -44 -20
-116 4 -96 20 -124 75 -124 l33 0 0 60 c0 59 0 60 28 60 l28 0 -4 -67 c-2 -38
-8 -72 -14 -78 -5 -5 -35 -10 -66 -10 -96 0 -142 56 -142 172 0 80 30 140 84
164 50 23 57 23 101 5z m-1535 -16 c0 -16 -7 -20 -30 -20 l-30 0 0 -150 0
-150 -31 0 -31 0 4 150 3 150 -32 0 c-26 0 -33 4 -33 20 0 19 7 20 90 20 83 0
90 -1 90 -20z m160 0 c0 -17 -7 -20 -40 -20 l-40 0 0 -50 0 -50 40 0 c33 0 40
-3 40 -20 0 -17 -7 -20 -40 -20 l-40 0 0 -61 0 -61 38 4 c32 3 37 0 40 -20 3
-21 0 -22 -69 -22 l-72 0 7 77 c3 42 6 118 6 170 l0 93 65 0 c58 0 65 -2 65
-20z m356 -91 l69 -112 3 112 c2 90 5 111 18 111 22 0 16 -333 -6 -338 -10 -1
-40 38 -85 113 l-70 115 -3 -115 c-2 -93 -5 -115 -17 -115 -13 0 -15 27 -15
170 0 159 1 170 19 170 13 0 39 -34 87 -111z m464 -39 l0 -150 40 0 c33 0 40
-3 40 -20 0 -18 -7 -20 -71 -20 l-71 0 6 31 c3 17 6 94 6 170 l0 139 25 0 25
0 0 -150z m871 0 c21 -80 41 -155 45 -167 5 -20 2 -23 -24 -23 -32 0 -34 3
-47 68 -6 30 -10 32 -46 32 -24 0 -39 -5 -39 -12 0 -33 -22 -88 -35 -88 -20 0
-20 4 20 137 19 65 39 137 45 161 20 78 39 53 81 -108z m-1883 -387 c-42 -2
-114 -2 -160 0 -46 1 -11 3 77 3 88 0 125 -2 83 -3z m360 0 c-21 -2 -55 -2
-75 0 -21 2 -4 4 37 4 41 0 58 -2 38 -4z m120 0 c-16 -2 -40 -2 -55 0 -16 2
-3 4 27 4 30 0 43 -2 28 -4z m215 0 c-29 -2 -78 -2 -110 0 -32 2 -8 3 52 3 61
0 87 -1 58 -3z m360 -10 c-7 -2 -19 -2 -25 0 -7 3 -2 5 12 5 14 0 19 -2 13 -5z
m214 1 c-3 -3 -12 -4 -19 -1 -8 3 -5 6 6 6 11 1 17 -2 13 -5z m301 -1 c-21 -2
-57 -2 -80 0 -24 2 -7 4 37 4 44 0 63 -2 43 -4z m435 0 c-7 -2 -19 -2 -25 0
-7 3 -2 5 12 5 14 0 19 -2 13 -5z m-2035 -260 c-10 -2 -26 -2 -35 0 -10 3 -2
5 17 5 19 0 27 -2 18 -5z m130 0 c-10 -2 -28 -2 -40 0 -13 2 -5 4 17 4 22 1
32 -1 23 -4z m582 -3 c0 -5 -7 -7 -15 -4 -8 4 -15 8 -15 10 0 2 7 4 15 4 8 0
15 -4 15 -10z m120 6 c0 -3 -4 -8 -10 -11 -5 -3 -10 -1 -10 4 0 6 5 11 10 11
6 0 10 -2 10 -4z m30 -6 c0 -5 -2 -10 -4 -10 -3 0 -8 5 -11 10 -3 6 -1 10 4
10 6 0 11 -4 11 -10z m70 6 c0 -11 -19 -15 -25 -6 -3 5 1 10 9 10 9 0 16 -2
16 -4z m-903 -192 c-3 -3 -12 -4 -19 -1 -8 3 -5 6 6 6 11 1 17 -2 13 -5z m80
0 c-3 -3 -12 -4 -19 -1 -8 3 -5 6 6 6 11 1 17 -2 13 -5z m443 -4 c0 -5 -7 -10
-15 -10 -8 0 -15 5 -15 10 0 6 7 10 15 10 8 0 15 -4 15 -10z m527 -6 c-3 -3
-12 -4 -19 -1 -8 3 -5 6 6 6 11 1 17 -2 13 -5z m716 -1 c-7 -2 -19 -2 -25 0
-7 3 -2 5 12 5 14 0 19 -2 13 -5z m-1198 -183 c3 -5 1 -10 -4 -10 -6 0 -11 5
-11 10 0 6 2 10 4 10 3 0 8 -4 11 -10z m298 -7 c-7 -2 -19 -2 -25 0 -7 3 -2 5
12 5 14 0 19 -2 13 -5z m164 1 c-3 -3 -12 -4 -19 -1 -8 3 -5 6 6 6 11 1 17 -2
13 -5z m70 0 c-3 -3 -12 -4 -19 -1 -8 3 -5 6 6 6 11 1 17 -2 13 -5z m231 -1
c-10 -2 -26 -2 -35 0 -10 3 -2 5 17 5 19 0 27 -2 18 -5z m525 0 c-7 -2 -19 -2
-25 0 -7 3 -2 5 12 5 14 0 19 -2 13 -5z m44 1 c-3 -3 -12 -4 -19 -1 -8 3 -5 6
6 6 11 1 17 -2 13 -5z m-1232 -184 c-3 -5 -16 -10 -28 -9 -20 1 -20 2 3 9 14
4 26 8 28 9 2 1 0 -3 -3 -9z m332 -6 c-3 -3 -12 -4 -19 -1 -8 3 -5 6 6 6 11 1
17 -2 13 -5z m240 0 c-3 -3 -12 -4 -19 -1 -8 3 -5 6 6 6 11 1 17 -2 13 -5z
m200 0 c-3 -3 -12 -4 -19 -1 -8 3 -5 6 6 6 11 1 17 -2 13 -5z m46 -1 c-7 -2
-19 -2 -25 0 -7 3 -2 5 12 5 14 0 19 -2 13 -5z m-828 -183 c-3 -5 -16 -10 -28
-9 -20 1 -20 2 3 9 14 4 26 8 28 9 2 1 0 -3 -3 -9z m-682 -7 c-7 -2 -19 -2
-25 0 -7 3 -2 5 12 5 14 0 19 -2 13 -5z m90 0 c-7 -2 -19 -2 -25 0 -7 3 -2 5
12 5 14 0 19 -2 13 -5z m685 0 c-10 -2 -26 -2 -35 0 -10 3 -2 5 17 5 19 0 27
-2 18 -5z m135 0 c-7 -2 -19 -2 -25 0 -7 3 -2 5 12 5 14 0 19 -2 13 -5z m182
-3 c3 -6 -1 -7 -9 -4 -18 7 -21 14 -7 14 6 0 13 -4 16 -10z m632 -6 c-3 -3
-12 -4 -19 -1 -8 3 -5 6 6 6 11 1 17 -2 13 -5z m50 0 c-3 -3 -12 -4 -19 -1 -8
3 -5 6 6 6 11 1 17 -2 13 -5z m83 2 c0 -9 -39 -13 -51 -5 -10 6 -4 9 19 9 17
0 32 -2 32 -4z m47 -2 c-3 -3 -12 -4 -19 -1 -8 3 -5 6 6 6 11 1 17 -2 13 -5z
m-947 -84 c0 -5 -2 -10 -4 -10 -3 0 -8 5 -11 10 -3 6 -1 10 4 10 6 0 11 -4 11
-10z m-12 -97 c-10 -2 -26 -2 -35 0 -10 3 -2 5 17 5 19 0 27 -2 18 -5z m789
-9 c-3 -3 -12 -4 -19 -1 -8 3 -5 6 6 6 11 1 17 -2 13 -5z m71 -1 c-10 -2 -26
-2 -35 0 -10 3 -2 5 17 5 19 0 27 -2 18 -5z m-1682 -55 c-3 -20 -16 -38 -27
-38 -6 0 -7 5 -4 10 3 6 0 10 -7 10 -9 1 25 27 39 30 1 0 0 -6 -1 -12z m-43
-125 c-7 -2 -19 -2 -25 0 -7 3 -2 5 12 5 14 0 19 -2 13 -5z m745 0 c-10 -2
-26 -2 -35 0 -10 3 -2 5 17 5 19 0 27 -2 18 -5z m682 -3 c-8 -5 -19 -10 -25
-10 -5 0 -3 5 5 10 8 5 20 10 25 10 6 0 3 -5 -5 -10z m-363 -6 c-3 -3 -12 -4
-19 -1 -8 3 -5 6 6 6 11 1 17 -2 13 -5z m420 0 c-3 -3 -12 -4 -19 -1 -8 3 -5
6 6 6 11 1 17 -2 13 -5z m200 0 c-3 -3 -12 -4 -19 -1 -8 3 -5 6 6 6 11 1 17
-2 13 -5z m-640 -90 c-3 -3 -12 -4 -19 -1 -8 3 -5 6 6 6 11 1 17 -2 13 -5z
m-769 -91 c-10 -2 -26 -2 -35 0 -10 3 -2 5 17 5 19 0 27 -2 18 -5z m462 3 c0
-2 -7 -7 -16 -10 -8 -3 -12 -2 -9 4 6 10 25 14 25 6z m65 -6 c3 -6 -1 -7 -9
-4 -18 7 -21 14 -7 14 6 0 13 -4 16 -10z m65 -5 c0 -2 -9 -3 -19 -2 -11 0 -18
5 -15 9 4 6 34 0 34 -7z m65 5 c-3 -5 -14 -10 -23 -9 -14 0 -13 2 3 9 27 11
27 11 20 0z m78 -7 c-7 -2 -19 -2 -25 0 -7 3 -2 5 12 5 14 0 19 -2 13 -5z
m200 0 c-7 -2 -19 -2 -25 0 -7 3 -2 5 12 5 14 0 19 -2 13 -5z m50 0 c-7 -2
-19 -2 -25 0 -7 3 -2 5 12 5 14 0 19 -2 13 -5z m50 0 c-7 -2 -19 -2 -25 0 -7
3 -2 5 12 5 14 0 19 -2 13 -5z m114 1 c-3 -3 -12 -4 -19 -1 -8 3 -5 6 6 6 11
1 17 -2 13 -5z m-281 -142 c-2 -4 4 -19 15 -32 17 -23 19 -23 19 -5 1 20 1 20
15 1 13 -17 15 -18 15 -3 0 9 5 17 10 17 6 0 10 -22 10 -50 0 -56 -10 -64 -27
-22 l-11 27 -1 -28 c-1 -16 -5 -26 -11 -22 -6 4 -8 11 -5 16 4 5 2 9 -3 9 -6
0 -12 -7 -16 -15 -3 -8 -12 -15 -21 -15 -9 0 -18 7 -21 15 -8 20 -21 19 -27
-2 -3 -10 -5 6 -6 35 -1 49 13 73 21 35 3 -13 7 -9 18 15 8 17 19 32 23 32 5
0 6 -4 3 -8z m-1191 -22 c5 -8 11 -7 21 1 12 10 14 3 14 -41 0 -40 -3 -51 -14
-47 -7 3 -18 1 -24 -5 -23 -23 -42 0 -42 52 0 43 3 50 19 50 11 0 23 -5 26
-10z m93 -2 c10 -10 15 -10 22 2 7 11 10 3 10 -27 0 -32 4 -43 15 -43 8 0 15
-7 15 -15 0 -18 -37 -20 -43 -2 -3 9 -7 9 -20 -2 -28 -23 -47 -6 -47 42 0 57
19 74 48 45z m93 -16 c0 -12 3 -11 9 6 16 39 60 21 60 -26 0 -53 -38 -81 -59
-44 -6 9 -11 11 -11 5 0 -7 -4 -13 -10 -13 -5 0 -10 23 -10 51 0 31 4 48 10
44 6 -3 10 -14 11 -23z m119 19 c0 -6 -4 -13 -10 -16 -5 -3 -10 -24 -10 -46 0
-22 -4 -38 -9 -35 -5 3 -7 24 -4 46 4 26 2 40 -6 40 -6 0 -11 5 -11 10 0 6 11
10 25 10 14 0 25 -4 25 -9z m55 -1 c5 -8 11 -7 21 1 7 6 21 9 29 5 17 -6 21
-36 5 -36 -5 0 -10 5 -10 11 0 5 -4 7 -10 4 -5 -3 -10 -17 -10 -30 0 -13 5
-27 10 -30 6 -3 10 -1 10 5 0 7 6 10 14 7 10 -4 16 6 20 34 3 21 10 39 16 39
10 0 30 -62 30 -94 0 -16 -2 -16 -16 -5 -10 8 -18 9 -22 3 -4 -5 -19 -11 -34
-12 -31 -2 -48 21 -48 62 0 26 -23 36 -35 16 -3 -5 1 -10 9 -10 9 0 16 -4 16
-10 0 -5 -4 -10 -10 -10 -5 0 -10 -7 -10 -15 0 -8 7 -15 16 -15 8 0 12 -4 9
-10 -3 -5 -15 -10 -26 -10 -16 0 -19 7 -19 55 0 48 3 55 19 55 11 0 23 -5 26
-10z m203 -2 c30 -30 3 -108 -33 -94 -15 6 -22 86 -8 99 10 11 28 8 41 -5z
m67 2 c3 -5 -1 -10 -9 -10 -19 0 -21 -16 -3 -24 10 -5 10 -7 0 -12 -18 -8 -16
-34 3 -34 8 0 12 -4 9 -10 -3 -5 -15 -10 -26 -10 -16 0 -19 7 -19 55 0 48 3
55 19 55 11 0 23 -4 26 -10z m83 -10 l17 -21 7 23 c4 14 6 1 7 -35 1 -37 -3
-56 -9 -52 -6 3 -8 18 -5 33 5 24 4 23 -9 -5 -10 -22 -22 -33 -36 -33 -17 0
-20 6 -20 48 0 67 15 80 48 42z m63 -13 l0 -22 11 23 c6 12 19 22 30 22 15 0
18 -8 18 -42 0 -50 16 -41 23 12 3 30 4 28 5 -13 2 -35 -2 -49 -14 -54 -20 -7
-33 13 -35 52 -1 27 -2 25 -12 -12 -5 -24 -13 -43 -18 -43 -6 0 -29 84 -29
106 0 17 20 -11 21 -29z m208 7 c3 -16 1 -17 -13 -5 -13 11 -17 11 -22 -2 -8
-21 -1 -48 11 -47 6 1 9 8 7 16 -4 17 14 19 21 2 3 -7 10 2 17 20 16 42 26 41
38 -5 l10 -38 1 31 c1 43 26 63 48 41 9 -9 13 -20 9 -24 -5 -5 -11 -2 -13 5
-3 6 -9 10 -14 6 -12 -7 -12 -64 1 -64 6 0 10 5 10 10 0 6 5 10 10 10 12 0 13
-11 0 -30 -8 -12 -13 -13 -29 -3 -15 10 -21 10 -25 0 -3 -9 -8 -8 -16 3 -9 11
-13 12 -17 3 -6 -16 -65 -17 -81 -1 -17 17 -15 64 4 83 20 19 38 15 43 -11z
m380 0 c3 -15 1 -16 -12 -6 -12 10 -16 9 -21 -4 -4 -9 -4 -25 0 -36 5 -16 8
-17 21 -6 13 10 15 9 12 -7 -6 -30 -42 -25 -53 7 -7 20 -5 33 8 53 19 29 39
29 45 -1z m89 8 c2 -7 -5 -12 -15 -12 -17 -1 -17 -1 1 -15 17 -13 17 -15 3
-21 -21 -8 -22 -24 -2 -24 8 0 15 -4 15 -10 0 -5 -11 -10 -25 -10 -23 0 -25 3
-25 49 0 30 5 51 13 54 17 7 30 3 35 -11z m108 10 c12 -8 6 -102 -6 -102 -5 0
-10 19 -12 43 -4 51 -23 47 -23 -6 0 -40 -8 -47 -24 -19 -10 16 -10 16 -11 0
0 -10 -4 -18 -10 -18 -5 0 -10 23 -10 50 0 54 10 64 28 28 l11 -23 0 23 c1 13
5 21 10 17 5 -3 12 -1 16 5 7 12 16 12 31 2z m-666 -42 c0 -29 4 -40 15 -40 8
0 15 -5 15 -11 0 -6 -10 -9 -22 -7 -20 3 -23 9 -24 51 -1 26 3 47 7 47 5 0 9
-18 9 -40z m500 -10 c0 -27 -4 -50 -10 -50 -5 0 -10 23 -10 50 0 28 5 50 10
50 6 0 10 -22 10 -50z m210 0 c0 -27 -4 -50 -10 -50 -5 0 -10 23 -10 50 0 28
5 50 10 50 6 0 10 -22 10 -50z m80 0 c0 -27 -4 -50 -10 -50 -5 0 -10 11 -10
25 0 18 -4 23 -15 19 -8 -4 -15 -15 -15 -25 0 -10 -4 -19 -10 -19 -5 0 -10 23
-10 50 l0 50 35 0 35 0 0 -50z m68 31 c3 -9 -2 -11 -17 -6 -18 5 -21 2 -21
-24 0 -17 5 -31 10 -31 6 0 10 5 10 11 0 6 7 9 15 5 11 -4 15 1 15 17 0 26 16
54 25 45 10 -10 26 -90 20 -97 -3 -3 -10 1 -16 9 -6 10 -12 11 -16 5 -5 -6
-23 -12 -40 -13 -27 -2 -34 2 -39 23 -10 41 3 77 28 73 12 -2 23 -9 26 -17z
m-533 -151 c-8 -13 -662 -13 -670 0 -4 7 115 10 335 10 223 0 339 -3 335 -10z
m-1475 -237 c0 -5 -50 -8 -110 -9 -61 0 -110 3 -110 8 0 4 50 8 110 8 61 0
110 -3 110 -7z m50 -3 c0 -5 -5 -10 -11 -10 -5 0 -7 5 -4 10 3 6 8 10 11 10 2
0 4 -4 4 -10z m80 -1 c0 -5 -9 -9 -20 -9 -11 0 -20 4 -20 8 0 4 9 8 20 9 11 1
20 -2 20 -8z m45 -10 c-7 -10 -35 -1 -35 11 0 5 9 6 20 3 11 -3 17 -9 15 -14z
m45 5 c0 -2 -7 -4 -15 -4 -8 0 -15 4 -15 10 0 5 7 7 15 4 8 -4 15 -8 15 -10z
m240 0 c0 -2 -18 -4 -40 -4 -22 0 -40 3 -40 8 0 4 18 6 40 4 22 -2 40 -6 40
-8z"/>
<path d="M1592 3907 c-15 -60 -16 -57 14 -57 24 0 25 2 18 33 -15 69 -20 73
-32 24z"/>
<path d="M2097 3589 c-29 -17 -47 -72 -47 -139 0 -102 42 -166 91 -140 57 31
69 214 17 269 -21 23 -34 25 -61 10z"/>
<path d="M1051 3581 c-25 -25 -34 -74 -29 -160 4 -76 24 -111 63 -111 32 0 54
30 67 91 27 130 -37 244 -101 180z"/>
<path d="M1160 3020 c0 -127 2 -140 18 -140 56 0 86 61 80 164 -4 85 -23 116
-70 116 l-28 0 0 -140z"/>
<path d="M1852 3039 c-12 -49 -9 -59 20 -59 18 0 19 4 13 38 -12 62 -21 68
-33 21z"/>
<path d="M1406 2717 c-30 -30 -40 -76 -34 -162 5 -74 25 -105 70 -105 87 0 91
271 5 288 -9 2 -28 -8 -41 -21z"/>
<path d="M1832 2717 c-40 -42 -52 -181 -21 -239 27 -51 90 -39 110 21 28 84 7
218 -36 235 -25 9 -30 8 -53 -17z"/>
<path d="M2442 2615 c-17 -57 -15 -65 13 -65 27 0 27 0 5 80 -7 23 -8 23 -18
-15z"/>
<path d="M1814 406 c-7 -28 2 -49 17 -41 12 8 12 52 -1 60 -5 3 -12 -5 -16
-19z"/>
<path d="M620 420 c0 -5 5 -10 10 -10 6 0 10 5 10 10 0 6 -4 10 -10 10 -5 0
-10 -4 -10 -10z"/>
<path d="M620 380 c0 -5 5 -10 10 -10 6 0 10 5 10 10 0 6 -4 10 -10 10 -5 0
-10 -4 -10 -10z"/>
<path d="M710 420 c0 -5 5 -10 10 -10 6 0 10 5 10 10 0 6 -4 10 -10 10 -5 0
-10 -4 -10 -10z"/>
<path d="M710 380 c0 -5 5 -10 10 -10 6 0 10 5 10 10 0 6 -4 10 -10 10 -5 0
-10 -4 -10 -10z"/>
<path d="M855 412 c-7 -23 4 -54 16 -46 12 7 12 51 0 59 -5 3 -12 -3 -16 -13z"/>
<path d="M1180 395 c0 -14 5 -25 10 -25 6 0 10 11 10 25 0 14 -4 25 -10 25 -5
0 -10 -11 -10 -25z"/>
<path d="M1330 395 c0 -22 4 -34 10 -30 6 3 10 17 10 30 0 13 -4 27 -10 30 -6
4 -10 -8 -10 -30z"/>
<path d="M2293 423 c-18 -7 -16 -23 2 -23 8 0 15 7 15 15 0 8 -1 15 -2 14 -2
0 -9 -3 -15 -6z"/>
</g>
</svg>
